<svg xmlns="http://www.w3.org/2000/svg" version="1.1" xmlns:xlink="http://www.w3.org/1999/xlink" xmlns:svgjs="http://svgjs.dev/svgjs" viewBox="0 0 1422 800"><defs><filter id="uuunion-blur" x="-100%" y="-100%" width="400%" height="400%" color-interpolation-filters="sRGB">
        <feGaussianBlur in="SourceGraphic" stdDeviation="7.5 0" result="blur"></feGaussianBlur>
        <feDropShadow stdDeviation="12.307692307692308" in="blur" dx="10" dy="10" flood-color="hsl(316, 73%, 52%)" flood-opacity="0.25" x="0%" y="0%" width="100%" height="100%"></feDropShadow>
      </filter><filter id="uuunion-blur2" x="-100%" y="-100%" width="400%" height="400%" color-interpolation-filters="sRGB">
        <feGaussianBlur in="SourceGraphic" stdDeviation="7.5 0" result="blur"></feGaussianBlur>
        <feDropShadow stdDeviation="12.307692307692308" in="blur" dx="-10" dy="-10" flood-color="hsl(316, 73%, 52%)" flood-opacity="0.25" x="0%" y="0%" width="100%" height="100%"></feDropShadow>
      </filter><linearGradient gradientTransform="rotate(0, 0.5, 0.5)" x1="50%" y1="0%" x2="50%" y2="100%" id="uuunion-grad"><stop stop-color="#007aff" offset="10%"></stop><stop stop-color="hsl(316, 73%, 52%)" offset="90%"></stop></linearGradient><linearGradient gradientTransform="rotate(135, 0.5, 0.5)" x1="50%" y1="0%" x2="50%" y2="100%" id="uuunion-grad2"><stop stop-color="#007aff" offset="25%"></stop><stop stop-color="hsl(316, 73%, 52%)" offset="100%"></stop></linearGradient><linearGradient gradientTransform="rotate(333, 0.5, 0.5)" x1="50%" y1="0%" x2="50%" y2="100%" id="uuunion-grad3"><stop stop-color="#007aff" offset="0%"></stop><stop stop-color="hsl(316, 73%, 52%)" offset="75%"></stop></linearGradient></defs><path d="M-131.44 -85.57Q-118.46 -84.02 -105.47 -82.28 -92.48 -80.45 -79.5 -78.59 -66.51 -76.8 -53.53 -75.15 -40.54 -73.71 -27.55 -72.56 -14.57 -71.74 -1.58 -71.28 11.39 -71.22 24.38 -71.54 37.37 -72.25 50.35 -73.3 63.34 -74.64 76.32 -76.23 89.31 -77.98 102.3 -79.83 115.28 -81.68 128.27 -83.46 141.26 -85.08 154.24 -86.47 167.23 -87.58 180.21 -88.35 193.2 -88.74 206.19 -88.75 219.17 -88.36 232.16 -87.6 245.14 -86.51 258.13 -85.12 271.12 -83.5 284.1 -81.73 297.09 -79.88 310.08 -78.03 323.06 -76.27 336.05 -74.68 349.03 -73.33 362.02 -72.27 375.01 -71.56 387.99 -71.22 400.98 -71.28 413.96 -71.72 426.95 -72.53 439.94 -73.68 452.92 -75.11 465.91 -76.75 478.9 -78.55 491.88 -80.4 504.87 -82.24 517.85 -83.97 530.84 -85.53 543.83 -86.85 556.81 -87.85 569.8 -88.51 582.78 -88.79 595.77 -88.67 608.76 -88.17 621.74 -87.3 634.73 -86.11 647.72 -84.64 660.7 -82.97 673.69 -81.16 686.67 -79.3 699.66 -77.48 712.65 -75.76 725.63 -74.24 738.62 -72.97 751.6 -72.01 764.59 -71.41 777.58 -71.2 790.56 -71.37 803.55 -71.93 816.54 -72.85 829.52 -74.09 842.51 -75.59 855.49 -77.29 868.48 -79.11 881.47 -80.97 894.45 -82.79 907.44 -84.48 920.43 -85.97 933.41 -87.19 946.4 -88.09 959.38 -88.64 972.37 -88.79 985.36 -88.56 998.34 -87.94 1011.33 -86.97 1024.31 -85.68 1037.3 -84.15 1050.29 -82.42 1063.27 -80.59 1076.26 -78.74 1089.25 -76.93 1102.23 -75.27 1115.22 -73.82 1128.2 -72.64 1141.19 -71.79 1154.18 -71.3 1167.16 -71.21 1180.15 -71.5 1193.14 -72.18 1206.12 -73.2 1219.11 -74.53 1232.09 -76.1 1245.08 -77.84 1258.07 -79.68 1271.05 -81.54 1284.04 -83.32 1297.03 -84.96 1310.01 -86.37 1323 -87.51 1335.98 -88.3 1348.97 -88.73 1361.96 -88.76 1374.94 -88.41 1387.93 -87.68 1400.92 -86.6 1413.9 -85.24 1426.89 -83.63 1439.87 -81.87 1452.86 -80.02 1465.85 -78.17 1478.83 -76.41 1491.82 -74.8 1504.81 -73.42 1517.79 -72.34 1530.78 -71.6 1530.72 -56.38 1534.19 -41.17 1540.82 -25.95 1549.92 -10.74 1560.52 4.46 1571.51 19.68 1581.72 34.89 1590.09 50.11 1595.73 65.32 1598.05 80.54 1596.8 95.75 1592.11 110.97 1584.48 126.18 1574.71 141.4 1563.84 156.61 1553 171.83 1543.34 187.04 1535.88 202.26 1531.4 217.47 1530.38 232.68 1532.93 247.9 1538.76 263.11 1547.28 278.33 1557.59 293.54 1568.58 308.76 1579.12 323.97 1588.08 339.19 1594.53 354.4 1597.78 369.62 1597.48 384.83 1593.69 400.05 1586.78 415.26 1577.49 430.48 1566.8 445.69 1555.84 460.9 1545.75 476.12 1537.62 491.33 1532.28 506.55 1530.3 521.76 1531.9 536.98 1536.9 552.19 1544.78 567.41 1554.71 582.62 1565.63 597.84 1576.4 613.05 1585.89 628.27 1593.09 643.48 1597.24 658.7 1597.92 673.91 1595.03 689.12 1588.9 704.34 1580.16 719.55 1569.75 734.77 1558.74 749.98 1548.31 765.2 1539.56 780.41 1533.4 795.63 1530.48 810.84 1531.12 826.06 1535.25 841.27 1542.43 856.49 1551.9 871.7 1561.41 893.55 1546.73 897.32 1533.31 893.7 1519.88 889.46 1506.45 884.8 1493.02 879.93 1479.59 875.05 1466.17 870.4 1452.74 866.18 1439.31 862.57 1425.88 859.74 1412.45 857.82 1399.02 856.88 1385.6 856.98 1372.17 858.1 1358.74 860.2 1345.31 863.18 1331.88 866.91 1318.45 871.22 1305.03 875.93 1291.6 880.82 1278.17 885.67 1264.74 890.27 1251.31 894.41 1237.89 897.9 1224.46 900.6 1211.03 902.38 1197.6 903.16 1184.17 902.91 1170.74 901.63 1157.32 899.39 1143.89 896.28 1130.46 892.45 1117.03 888.06 1103.6 883.31 1090.17 878.42 1076.75 873.59 1063.32 869.05 1049.89 865 1036.46 861.62 1023.03 859.05 1009.61 857.42 996.18 856.8 982.75 857.21 969.32 858.64 955.89 861.02 942.46 864.25 929.04 868.18 915.61 872.64 902.18 877.42 888.75 882.32 875.32 887.12 861.9 891.6 848.47 895.56 835.04 898.83 821.61 901.25 808.18 902.73 794.75 903.19 781.33 902.62 767.9 901.04 754.47 898.52 741.04 895.18 727.61 891.15 714.19 886.63 700.76 881.82 687.33 876.92 673.9 872.16 660.47 867.75 647.04 863.88 633.62 860.73 620.19 858.45 606.76 857.12 593.33 856.82 579.9 857.55 566.48 859.28 553.05 861.93 539.62 865.39 526.19 869.5 512.76 874.08 499.33 878.93 485.91 883.82 472.48 888.54 459.05 892.88 445.62 896.64 432.19 899.67 418.77 901.81 405.34 902.98 391.91 903.13 378.48 902.24 365.05 900.36 351.63 897.58 338.2 894.01 324.77 889.81 311.34 885.18 297.91 880.31 284.48 875.43 271.06 870.76 257.63 866.49 244.2 862.83 230.77 859.94 217.34 857.93 203.92 856.92 190.49 856.93 177.06 857.97 163.63 860 150.2 862.91 136.77 866.59 123.35 870.87 109.92 875.55 96.49 880.43 83.06 885.3 69.63 889.92 56.21 894.1 42.78 897.66 29.35 900.42 15.92 902.28 2.49 903.14 -10.92 902.96 -24.35 901.77 -37.78 899.6 -51.21 896.56 -64.64 892.78 -78.06 888.42 -91.49 883.7 -104.92 878.8 -118.35 873.96 -131.78 869.39 -145.21 865.3 -141.69 850.44 -138.23 835.58 -135.19 820.72 -132.88 805.87 -131.55 791.01 -131.35 776.15 -132.28 761.29 -134.26 746.44 -137.08 731.58 -140.43 716.72 -143.97 701.86 -147.32 687.01 -150.13 672.15 -152.1 657.29 -153.02 642.43 -152.81 627.58 -151.47 612.72 -149.16 597.86 -146.11 583 -142.65 568.15 -139.13 553.29 -135.94 538.43 -133.41 523.57 -131.8 508.72 -131.29 493.86 -131.92 479 -133.64 464.14 -136.26 449.29 -139.5 434.43 -143.02 419.57 -146.46 404.71 -149.44 389.86 -151.66 375 -152.89 360.14 -152.98 345.29 -151.94 330.43 -149.86 315.57 -146.98 300.71 -143.6 285.86 -140.06 271 -136.75 256.14 -134.01 241.28 -132.13 226.43 -131.32 211.57 -131.64 196.71 -133.08 181.85 -135.48 167 -138.59 152.14 -142.07 137.28 -145.57 122.42 -148.71 107.57 -151.16 92.71 -152.67 77.85 -153.07 62.99 -152.32 48.14 -150.51 33.28 -147.82 18.42 -144.54 3.56 -141 -11.28 -137.6 -26.14 -134.67 -41 -132.54 -55.86 -131.42 -70.71 -131.44 -85.57" fill="url(#uuunion-grad)"></path><path d="M-131.45 -85.57Q-131.43 -70.71 -132.55 -55.86 -134.68 -41 -137.61 -26.14 -141.01 -11.28 -144.55 3.56 -147.83 18.42 -150.52 33.28 -152.33 48.14 -153.08 62.99 -152.68 77.85 -151.17 92.71 -148.72 107.56 -145.58 122.42 -142.08 137.28 -138.6 152.14 -135.49 166.99 -133.09 181.85 -131.65 196.71 -131.33 211.57 -132.14 226.42 -134.02 241.28 -136.76 256.14 -140.07 271 -143.61 285.85 -146.99 300.71 -149.87 315.57 -151.95 330.43 -152.99 345.28 -152.9 360.14 -151.68 375 -149.45 389.86 -140.41 391.7 -131.37 393.7 -122.33 395.83 -113.28 398.05 -104.24 400.3 -95.2 402.55 -86.15 404.74 -77.11 406.84 -68.07 408.81 -59.03 410.6 -49.98 412.18 -40.94 413.51 -31.9 414.58 -22.85 415.36 -5.76 415.95 -2.74 415.99 8.2 412.48 19.2 408.49 30.25 404.06 41.35 399.22 52.5 394.02 63.68 388.54 74.9 382.85 86.16 377.03 97.46 371.16 108.78 365.33 120.13 359.62 131.49 354.11 142.88 348.88 154.28 343.98 165.69 339.47 177.11 335.39 188.52 331.77 199.94 328.62 211.34 325.93 222.74 323.69 234.12 321.88 245.49 320.44 256.83 319.32 268.15 318.46 279.44 317.79 290.7 317.23 301.93 316.7 313.12 316.13 324.28 315.42 335.39 314.51 346.47 313.33 357.51 311.82 368.5 309.94 379.46 307.65 390.37 304.92 401.25 301.75 412.08 298.14 422.88 294.11 433.65 289.69 444.37 284.92 455.07 279.85 465.74 274.55 476.38 269.09 487 263.53 497.6 257.96 508.19 252.45 518.77 247.07 529.33 241.89 539.9 236.98 550.47 232.39 561.05 228.15 571.63 224.31 582.23 220.88 592.86 217.87 603.51 215.27 614.19 213.06 624.9 211.21 635.65 209.69 646.45 208.43 657.3 207.38 668.19 206.47 679.14 205.64 690.15 204.81 701.22 203.91 712.35 202.87 723.55 201.64 734.82 200.15 746.16 198.35 757.56 196.2 769.04 193.69 780.59 190.79 792.21 187.49 803.9 183.81 815.67 179.77 827.49 175.39 839.39 170.72 851.35 165.81 863.36 160.71 875.44 155.49 887.56 150.22 899.74 144.95 911.95 139.76 924.21 134.71 936.5 129.85 948.81 125.25 961.15 120.93 973.5 116.95 985.86 113.31 998.22 110.04 1010.57 107.14 1022.91 104.59 1035.23 102.38 1047.52 100.47 1059.78 98.82 1071.99 97.4 1084.16 96.13 1096.27 94.97 1108.31 93.86 1120.28 92.72 1132.18 91.5 1143.99 90.14 1155.72 88.59 1167.35 86.8 1178.87 84.73 1190.3 82.36 1201.62 79.65 1212.82 76.6 1223.91 73.21 1234.88 69.5 1245.73 65.48 1256.46 61.18 1267.07 56.64 1277.55 51.91 1287.92 47.04 1298.16 42.08 1308.28 37.09 1318.29 32.14 1328.18 27.26 1337.96 22.53 1347.64 17.98 1357.21 13.66 1366.7 9.61 1376.09 5.84 1385.4 2.39 1394.64 -0.75 1403.81 -3.58 1412.93 -6.11 1422 -8.36 1410.79 -25.64 1401.2 -42.92 1394.57 -60.2 1391.87 -77.48 1393.47 -94.76 1399.16 -112.04 1408.1 -129.32 1419.04 -146.6 1406.76 -147.32 1394.48 -147.75 1382.2 -147.89 1369.92 -147.74 1357.64 -147.28 1345.36 -146.55 1333.07 -145.57 1320.79 -144.37 1308.51 -143.01 1296.23 -141.54 1283.95 -140.01 1271.67 -138.47 1259.39 -136.99 1247.11 -135.63 1234.83 -134.44 1222.55 -133.45 1210.27 -132.72 1197.99 -132.26 1185.7 -132.1 1173.42 -132.23 1161.14 -132.67 1148.86 -133.38 1136.58 -134.34 1124.3 -135.52 1112.02 -136.87 1099.74 -138.34 1087.46 -139.87 1075.18 -141.41 1062.9 -142.89 1050.62 -144.26 1038.33 -145.47 1026.05 -146.47 1013.77 -147.23 1001.49 -147.71 989.21 -147.89 976.93 -147.78 964.65 -147.37 952.37 -146.68 940.09 -145.73 927.81 -144.56 915.53 -143.23 903.24 -141.76 890.96 -140.24 878.68 -138.7 866.4 -137.21 854.12 -135.83 841.84 -134.6 829.56 -133.58 817.28 -132.81 805 -132.31 792.72 -132.1 780.44 -132.19 768.16 -132.58 755.87 -133.25 743.59 -134.18 731.31 -135.33 719.03 -136.66 706.75 -138.11 694.47 -139.64 682.19 -141.18 669.91 -142.67 657.63 -144.06 645.35 -145.3 633.07 -146.34 620.79 -147.13 608.5 -147.65 596.22 -147.88 583.94 -147.81 571.66 -147.45 559.38 -146.8 547.1 -145.89 534.82 -144.75 522.54 -143.44 510.26 -141.99 497.98 -140.47 485.7 -138.93 473.42 -137.43 461.13 -136.02 448.85 -134.77 436.57 -133.72 424.29 -132.91 412.01 -132.37 399.73 -132.11 387.45 -132.16 375.17 -132.51 362.89 -133.14 350.61 -134.03 338.33 -135.15 326.05 -136.45 313.76 -137.89 301.48 -139.41 289.2 -140.95 276.92 -142.45 264.64 -143.87 252.36 -145.13 240.08 -146.2 227.8 -147.03 215.52 -147.59 203.24 -147.87 190.96 -147.84 178.68 -147.52 166.39 -146.91 154.11 -146.04 141.83 -144.93 129.55 -143.64 117.27 -142.21 104.99 -140.7 92.71 -139.16 80.43 -137.65 68.15 -136.23 55.87 -134.95 43.59 -133.86 31.31 -133.01 19.02 -132.43 6.74 -132.13 -5.53 -132.13 -17.81 -132.44 -30.09 -133.02 -42.37 -133.88 -54.65 -134.97 -66.93 -136.25 -79.21 -137.67 -91.49 -139.18 -103.77 -140.72 -116.05 -142.23 -128.34 -143.66 -143.54 -137.96 -140.56 -115.87 -135.49 -100.73 -131.45 -85.57" fill="url(#uuunion-grad2)" filter="url(#uuunion-blur)"></path><path d="M1440.81 307.62Q1449.84 308.88 1458.87 310.37 1467.9 312.04 1476.94 313.88 1485.97 315.83 1495 317.87 1504.04 319.95 1513.07 322.03 1522.1 324.07 1531.13 326.03 1540.17 327.87 1549.2 329.56 1558.23 331.05 1567.27 332.32 1576.3 333.35 1585.33 334.12 1593.66 351.87 1597.78 369.62 1597.09 387.37 1591.7 405.12 1582.37 422.87 1570.45 440.62 1557.63 458.37 1545.75 476.12 1536.51 493.87 1531.23 511.62 1530.66 529.37 1534.88 547.12 1543.3 564.87 1554.71 582.62 1567.47 600.37 1579.76 618.12 1589.83 635.87 1596.23 653.62 1598.05 671.37 1595.03 689.12 1587.6 706.88 1576.83 724.63 1564.24 742.38 1551.65 760.13 1540.86 777.88 1533.4 795.63 1530.34 813.38 1532.13 831.13 1538.5 848.88 1548.54 866.63 1548.84 893.52 1524.32 890.92 1512.01 886.77 1499.69 882.36 1487.37 877.86 1475.05 873.45 1462.74 869.28 1450.42 865.51 1438.1 862.29 1425.79 859.73 1413.47 857.93 1401.15 856.96 1388.83 856.86 1376.52 857.62 1364.2 859.23 1351.88 861.62 1339.57 864.69 1327.25 868.34 1314.93 872.43 1302.61 876.8 1290.3 881.29 1277.98 885.74 1265.66 889.97 1253.35 893.82 1241.03 897.15 1228.71 899.84 1216.4 901.79 1204.08 902.91 1191.76 903.18 1179.44 902.57 1167.13 901.12 1154.81 898.87 1142.49 895.92 1130.18 892.36 1117.86 888.35 1105.54 884.01 1093.22 879.53 1080.91 875.07 1068.59 870.79 1056.27 866.85 1043.96 863.41 1031.64 860.59 1019.32 858.5 1007 857.22 994.69 856.8 982.37 857.24 970.05 858.54 957.74 860.64 945.42 863.47 933.1 866.93 920.78 870.87 908.47 875.16 896.15 879.62 883.83 884.1 871.52 888.43 859.2 892.44 846.88 895.98 834.56 898.93 822.25 901.16 809.93 902.59 797.61 903.18 785.3 902.9 772.98 901.76 760.66 899.8 748.35 897.09 736.03 893.75 723.71 889.88 711.39 885.65 699.08 881.2 686.76 876.71 674.44 872.34 662.13 868.26 649.81 864.62 637.49 861.56 625.17 859.19 612.86 857.6 600.54 856.85 588.22 856.97 575.91 857.96 563.59 859.77 551.27 862.34 538.95 865.58 526.64 869.36 514.32 873.53 502 877.95 489.69 882.45 477.37 886.85 465.05 891 452.73 894.73 440.42 897.91 428.1 900.42 415.78 902.16 403.47 903.06 391.15 903.11 378.83 902.28 366.52 900.61 354.2 898.18 341.88 895.06 329.56 891.37 317.25 887.25 304.93 882.87 292.61 878.37 280.3 873.94 267.98 869.73 255.66 865.91 243.34 862.62 231.03 859.98 218.71 858.09 206.39 857.03 194.08 856.83 181.76 857.49 169.44 859.01 157.12 861.31 144.81 864.31 132.49 867.9 120.17 871.95 107.86 876.29 95.54 880.78 83.22 885.24 70.9 889.5 58.59 893.4 46.27 896.8 33.95 899.57 21.64 901.61 3.93 897.93 0.1 882.89 1.6 872.74 2.99 862.59 4.18 852.44 5.13 842.29 6.21 827.07 7.11 822 19.33 815.22 31.42 807.61 43.41 799.23 55.31 790.16 67.15 780.52 78.96 770.45 90.75 760.11 102.54 749.64 114.37 739.23 126.23 729.03 138.16 719.2 150.17 709.87 162.25 701.16 174.44 693.16 186.72 685.93 199.09 679.51 211.57 673.88 224.13 669.03 236.77 664.89 249.48 661.36 262.24 658.35 275.05 655.71 287.87 653.3 300.71 650.97 313.52 648.57 326.31 645.94 339.05 642.95 351.72 639.46 364.31 635.39 376.82 630.64 389.23 625.17 401.53 618.95 413.72 611.99 425.81 604.33 437.8 596.02 449.69 587.15 461.5 577.84 473.24 568.19 484.92 558.37 496.58 548.49 508.23 538.71 519.89 529.16 531.59 519.98 543.35 511.26 555.19 503.11 567.15 495.59 579.24 488.74 591.48 482.58 603.88 477.1 616.47 472.27 629.25 468.01 642.23 464.25 655.41 460.88 668.78 457.79 682.34 454.85 696.07 451.93 709.95 448.89 723.97 445.61 738.1 441.99 752.31 437.91 766.56 433.31 780.82 428.12 795.05 422.3 809.21 415.86 819.38 414.08 829.56 411.93 839.73 409.45 849.91 406.66 860.09 403.59 870.27 400.29 880.45 396.82 890.63 393.22 900.8 389.54 910.98 385.85 921.15 382.21 931.32 378.67 941.49 375.29 951.65 372.11 961.8 369.18 971.95 366.54 982.09 364.22 992.23 362.25 1002.35 360.65 1012.47 359.41 1022.58 358.55 1032.68 358.04 1042.77 357.88 1052.85 358.03 1062.91 358.46 1072.97 359.13 1083 360 1093.03 361 1103.04 362.1 1113.04 363.23 1123.02 364.34 1132.99 365.36 1142.94 366.26 1152.87 366.97 1162.78 367.45 1172.68 367.66 1182.55 367.57 1192.41 367.15 1202.25 366.38 1212.07 365.24 1221.86 363.75 1231.64 361.9 1241.39 359.71 1251.13 357.2 1260.84 354.4 1270.53 351.36 1280.19 348.11 1289.83 344.7 1299.45 341.19 1309.05 337.63 1318.62 334.06 1328.17 330.56 1337.69 327.16 1347.19 323.93 1356.66 320.9 1366.11 318.13 1375.54 315.64 1384.93 313.46 1394.31 311.62 1403.66 310.13 1412.98 308.99 1422.28 308.2 1431.56 307.75 1440.81 307.62" fill="url(#uuunion-grad3)" filter="url(#uuunion-blur2)"></path></svg>