<svg xmlns="http://www.w3.org/2000/svg" version="1.1" xmlns:xlink="http://www.w3.org/1999/xlink" xmlns:svgjs="http://svgjs.dev/svgjs" viewBox="0 0 800 800"><defs><linearGradient x1="50%" y1="0%" x2="50%" y2="100%" id="ffflurry-grad" gradientTransform="rotate(270)"><stop stop-color="hsl(238, 82%, 13%)" stop-opacity="1" offset="0%"></stop><stop stop-color="hsl(256, 100%, 41%)" stop-opacity="1" offset="45%"></stop><stop stop-color="hsl(306, 98%, 52%)" stop-opacity="1" offset="100%"></stop></linearGradient></defs><rect width="100%" height="100%" fill="hsl(238, 82%, 13%)"></rect><g fill="url(#ffflurry-grad)"><rect width="32" height="11" x="256" y="156.5" rx="5.5" transform="rotate(36, 272, 162)" opacity="0.19"></rect><rect width="69" height="11" x="81.5" y="85.5" rx="5.5" transform="rotate(36, 116, 91)" opacity="0.70"></rect><rect width="432" height="11" x="-70" y="294.5" rx="5.5" transform="rotate(36, 146, 300)" opacity="0.39"></rect><rect width="94" height="11" x="137" y="145.5" rx="5.5" transform="rotate(36, 184, 151)" opacity="0.51"></rect><rect width="225" height="11" x="416.5" y="726.5" rx="5.5" transform="rotate(36, 529, 732)" opacity="0.61"></rect><rect width="235" height="11" x="616.5" y="159.5" rx="5.5" transform="rotate(36, 734, 165)" opacity="0.31"></rect><rect width="524" height="11" x="232" y="440.5" rx="5.5" transform="rotate(36, 494, 446)" opacity="0.13"></rect><rect width="114" height="11" x="313" y="182.5" rx="5.5" transform="rotate(36, 370, 188)" opacity="0.40"></rect><rect width="150" height="11" x="573" y="21.5" rx="5.5" transform="rotate(36, 648, 27)" opacity="0.98"></rect><rect width="278" height="11" x="597" y="391.5" rx="5.5" transform="rotate(36, 736, 397)" opacity="0.92"></rect><rect width="198" height="11" x="672" y="721.5" rx="5.5" transform="rotate(36, 771, 727)" opacity="0.23"></rect><rect width="128" height="11" x="207" y="30.5" rx="5.5" transform="rotate(36, 271, 36)" opacity="0.20"></rect><rect width="129" height="11" x="-28.5" y="746.5" rx="5.5" transform="rotate(36, 36, 752)" opacity="0.72"></rect><rect width="116" height="11" x="68" y="196.5" rx="5.5" transform="rotate(36, 126, 202)" opacity="0.43"></rect><rect width="300" height="11" x="213" y="27.5" rx="5.5" transform="rotate(36, 363, 33)" opacity="0.27"></rect><rect width="478" height="11" x="340" y="564.5" rx="5.5" transform="rotate(36, 579, 570)" opacity="0.76"></rect><rect width="240" height="11" x="140" y="596.5" rx="5.5" transform="rotate(36, 260, 602)" opacity="0.12"></rect><rect width="574" height="11" x="260" y="58.5" rx="5.5" transform="rotate(36, 547, 64)" opacity="0.48"></rect><rect width="469" height="11" x="-188.5" y="254.5" rx="5.5" transform="rotate(36, 46, 260)" opacity="0.99"></rect><rect width="497" height="11" x="-197.5" y="633.5" rx="5.5" transform="rotate(36, 51, 639)" opacity="0.57"></rect><rect width="149" height="11" x="249.5" y="739.5" rx="5.5" transform="rotate(36, 324, 745)" opacity="0.74"></rect><rect width="59" height="11" x="224.5" y="97.5" rx="5.5" transform="rotate(36, 254, 103)" opacity="0.11"></rect><rect width="541" height="11" x="416.5" y="81.5" rx="5.5" transform="rotate(36, 687, 87)" opacity="0.76"></rect><rect width="176" height="11" x="-48" y="36.5" rx="5.5" transform="rotate(36, 40, 42)" opacity="0.71"></rect><rect width="448" height="11" x="450" y="663.5" rx="5.5" transform="rotate(36, 674, 669)" opacity="0.97"></rect><rect width="313" height="11" x="487.5" y="233.5" rx="5.5" transform="rotate(36, 644, 239)" opacity="0.16"></rect><rect width="114" height="11" x="-6" y="501.5" rx="5.5" transform="rotate(36, 51, 507)" opacity="0.76"></rect><rect width="412" height="11" x="477" y="751.5" rx="5.5" transform="rotate(36, 683, 757)" opacity="0.48"></rect><rect width="473" height="11" x="148.5" y="378.5" rx="5.5" transform="rotate(36, 385, 384)" opacity="0.73"></rect><rect width="224" height="11" x="-5" y="737.5" rx="5.5" transform="rotate(36, 107, 743)" opacity="0.51"></rect><rect width="486" height="11" x="229" y="141.5" rx="5.5" transform="rotate(36, 472, 147)" opacity="0.40"></rect><rect width="108" height="11" x="215" y="401.5" rx="5.5" transform="rotate(36, 269, 407)" opacity="0.96"></rect><rect width="180" height="11" x="442" y="186.5" rx="5.5" transform="rotate(36, 532, 192)" opacity="0.63"></rect><rect width="128" height="11" x="557" y="107.5" rx="5.5" transform="rotate(36, 621, 113)" opacity="0.67"></rect><rect width="708" height="11" x="366" y="497.5" rx="5.5" transform="rotate(36, 720, 503)" opacity="0.67"></rect><rect width="329" height="11" x="-103.5" y="379.5" rx="5.5" transform="rotate(36, 61, 385)" opacity="0.41"></rect><rect width="523" height="11" x="201.5" y="260.5" rx="5.5" transform="rotate(36, 463, 266)" opacity="0.28"></rect><rect width="432" height="11" x="-54" y="599.5" rx="5.5" transform="rotate(36, 162, 605)" opacity="0.28"></rect><rect width="180" height="11" x="328" y="156.5" rx="5.5" transform="rotate(36, 418, 162)" opacity="0.57"></rect><rect width="144" height="11" x="289" y="96.5" rx="5.5" transform="rotate(36, 361, 102)" opacity="0.61"></rect><rect width="350" height="11" x="64" y="246.5" rx="5.5" transform="rotate(36, 239, 252)" opacity="0.82"></rect><rect width="97" height="11" x="94.5" y="533.5" rx="5.5" transform="rotate(36, 143, 539)" opacity="0.09"></rect><rect width="325" height="11" x="383.5" y="300.5" rx="5.5" transform="rotate(36, 546, 306)" opacity="0.22"></rect><rect width="119" height="11" x="139.5" y="754.5" rx="5.5" transform="rotate(36, 199, 760)" opacity="0.71"></rect><rect width="450" height="11" x="-46" y="673.5" rx="5.5" transform="rotate(36, 179, 679)" opacity="0.56"></rect><rect width="317" height="11" x="195.5" y="536.5" rx="5.5" transform="rotate(36, 354, 542)" opacity="0.18"></rect><rect width="700" height="11" x="393" y="270.5" rx="5.5" transform="rotate(36, 743, 276)" opacity="0.90"></rect><rect width="572" height="11" x="381" y="579.5" rx="5.5" transform="rotate(36, 667, 585)" opacity="0.72"></rect><rect width="847" height="11" x="43.5" y="570.5" rx="5.5" transform="rotate(36, 467, 576)" opacity="0.40"></rect><rect width="296" height="11" x="-20" y="17.5" rx="5.5" transform="rotate(36, 128, 23)" opacity="0.23"></rect><rect width="316" height="11" x="456" y="390.5" rx="5.5" transform="rotate(36, 614, 396)" opacity="0.95"></rect><rect width="133" height="11" x="248.5" y="207.5" rx="5.5" transform="rotate(36, 315, 213)" opacity="0.67"></rect><rect width="459" height="11" x="234.5" y="39.5" rx="5.5" transform="rotate(36, 464, 45)" opacity="0.75"></rect><rect width="453" height="11" x="166.5" y="661.5" rx="5.5" transform="rotate(36, 393, 667)" opacity="0.98"></rect><rect width="447" height="11" x="-11.5" y="348.5" rx="5.5" transform="rotate(36, 212, 354)" opacity="0.89"></rect><rect width="263" height="11" x="633.5" y="600.5" rx="5.5" transform="rotate(36, 765, 606)" opacity="0.10"></rect><rect width="521" height="11" x="96.5" y="283.5" rx="5.5" transform="rotate(36, 357, 289)" opacity="0.66"></rect><rect width="416" height="11" x="377" y="160.5" rx="5.5" transform="rotate(36, 585, 166)" opacity="0.59"></rect><rect width="392" height="11" x="-4" y="47.5" rx="5.5" transform="rotate(36, 192, 53)" opacity="0.55"></rect><rect width="405" height="11" x="107.5" y="471.5" rx="5.5" transform="rotate(36, 310, 477)" opacity="0.34"></rect><rect width="331" height="11" x="596.5" y="53.5" rx="5.5" transform="rotate(36, 762, 59)" opacity="0.36"></rect><rect width="260" height="11" x="-86" y="135.5" rx="5.5" transform="rotate(36, 44, 141)" opacity="0.75"></rect><rect width="590" height="11" x="-120" y="450.5" rx="5.5" transform="rotate(36, 175, 456)" opacity="0.93"></rect></g></svg>