<?xml version="1.0" encoding="UTF-8" standalone="no"?>
<svg
   id="a"
   viewBox="0 -0.03 176.4 176.45"
   version="1.1"
   sodipodi:docname="icon_white.svg"
   inkscape:version="1.2.1 (9c6d41e410, 2022-07-14)"
   xmlns:inkscape="http://www.inkscape.org/namespaces/inkscape"
   xmlns:sodipodi="http://sodipodi.sourceforge.net/DTD/sodipodi-0.dtd"
   xmlns:xlink="http://www.w3.org/1999/xlink"
   xmlns="http://www.w3.org/2000/svg"
   xmlns:svg="http://www.w3.org/2000/svg">
  <sodipodi:namedview
     id="namedview118"
     pagecolor="#ffffff"
     bordercolor="#666666"
     borderopacity="1.0"
     inkscape:showpageshadow="2"
     inkscape:pageopacity="0.0"
     inkscape:pagecheckerboard="0"
     inkscape:deskcolor="#d1d1d1"
     showgrid="false"
     inkscape:zoom="5.8203458"
     inkscape:cx="86.678699"
     inkscape:cy="88.224998"
     inkscape:window-width="2560"
     inkscape:window-height="1356"
     inkscape:window-x="0"
     inkscape:window-y="0"
     inkscape:window-maximized="1"
     inkscape:current-layer="a" />
  <defs
     id="defs111">
    <style
       id="style99">.d{fill:url(#c);}.e{fill:url(#b);}</style>
    <linearGradient
       id="b"
       x1="38.57"
       y1="52.95"
       x2="617.57"
       y2="204.95"
       gradientTransform="translate(0 154.18) scale(1 -1)"
       gradientUnits="userSpaceOnUse">
      <stop
         offset="0"
         stop-color="#007cff"
         id="stop101" />
      <stop
         offset="1"
         stop-color="#f015ff"
         id="stop103" />
      <stop
         offset="1"
         stop-color="#edf2f7"
         id="stop105" />
      <stop
         offset="1"
         stop-color="#f7f7f7"
         id="stop107" />
    </linearGradient>
    <linearGradient
       id="c"
       x1="38.57"
       y1="52.95"
       x2="617.57"
       y2="204.95"
       xlink:href="#b" />
  </defs>
  <path
     class="e"
     d="M88.2,16.1c9.8,0,19.6,3.7,27.1,11.2l33.8,33.8c14.9,14.9,14.9,39.2,0,54.1l-33.8,33.8c-7.5,7.5-17.3,11.2-27.1,11.2s-19.6-3.7-27.1-11.2L27.3,115.2c-14.9-14.9-14.9-39.2,0-54.1L61.1,27.3c7.5-7.4,17.3-11.2,27.1-11.2m0-16.1c-14.5,0-28.2,5.7-38.5,15.9L15.9,49.7C5.6,60,0,73.7,0,88.2s5.7,28.2,15.9,38.5l33.8,33.8c10.3,10.3,23.9,15.9,38.5,15.9s28.2-5.7,38.5-15.9l33.8-33.8c10.3-10.3,15.9-23.9,15.9-38.5s-5.7-28.2-15.9-38.5L126.7,15.9C116.3,5.7,102.7,0,88.2,0h0Z"
     id="path113"
     style="fill:#ffffff" />
  <path
     class="d"
     d="M102.7,134h-29c-17.3,0-31.3-14.1-31.3-31.3v-29c0-17.3,14.1-31.3,31.3-31.3h29c17.3,0,31.3,14.1,31.3,31.3v29c0,17.3-14.1,31.3-31.3,31.3Zm-29.1-75.5c-8.4,0-15.2,6.8-15.2,15.2v29c0,8.4,6.8,15.2,15.2,15.2h29c8.4,0,15.2-6.8,15.2-15.2v-29c0-8.4-6.8-15.2-15.2-15.2h-29Z"
     id="path115"
     style="fill:#ffffff" />
</svg>
