<?xml version="1.0" encoding="UTF-8"?><svg id="a" xmlns="http://www.w3.org/2000/svg" xmlns:xlink="http://www.w3.org/1999/xlink" viewBox="0 0 630 176.4"><defs><style>.k{fill:url(#c);}.l{fill:url(#f);}.m{fill:url(#g);}.n{fill:url(#b);}.o{fill:url(#i);}.p{fill:url(#h);}.q{fill:url(#d);}.r{fill:url(#e);}.s{fill:url(#j);}</style><linearGradient id="b" x1="38.57" y1="101.23" x2="617.57" y2="-50.77" gradientTransform="matrix(1, 0, 0, 1, 0, 0)" gradientUnits="userSpaceOnUse"><stop offset="0" stop-color="#007cff"/><stop offset="1" stop-color="#f015ff"/><stop offset="1" stop-color="#edf2f7"/><stop offset="1" stop-color="#f7f7f7"/></linearGradient><linearGradient id="c" x1="38.57" y1="101.23" x2="617.57" y2="-50.77" xlink:href="#b"/><linearGradient id="d" x1="45.86" y1="128.99" x2="624.86" y2="-23.01" xlink:href="#b"/><linearGradient id="e" x1="49.61" y1="143.28" x2="628.61" y2="-8.72" xlink:href="#b"/><linearGradient id="f" x1="56.01" y1="167.67" x2="635.01" y2="15.67" xlink:href="#b"/><linearGradient id="g" x1="60.39" y1="184.35" x2="639.39" y2="32.35" xlink:href="#b"/><linearGradient id="h" x1="60.98" y1="186.6" x2="639.98" y2="34.6" xlink:href="#b"/><linearGradient id="i" x1="69.88" y1="220.48" x2="648.88" y2="68.48" xlink:href="#b"/><linearGradient id="j" x1="74.93" y1="239.75" x2="653.93" y2="87.75" xlink:href="#b"/></defs><path class="n" d="M88.2,16.1c9.8,0,19.6,3.7,27.1,11.2l33.8,33.8c14.9,14.9,14.9,39.2,0,54.1l-33.8,33.8c-7.5,7.5-17.3,11.2-27.1,11.2s-19.6-3.7-27.1-11.2L27.3,115.2c-14.9-14.9-14.9-39.2,0-54.1L61.1,27.3c7.5-7.4,17.3-11.2,27.1-11.2m0-16.1c-14.5,0-28.2,5.7-38.5,15.9L15.9,49.7C5.6,60,0,73.7,0,88.2s5.7,28.2,15.9,38.5l33.8,33.8c10.3,10.3,23.9,15.9,38.5,15.9s28.2-5.7,38.5-15.9l33.8-33.8c10.3-10.3,15.9-23.9,15.9-38.5s-5.7-28.2-15.9-38.5L126.7,15.9C116.3,5.7,102.7,0,88.2,0h0Z"/><path class="k" d="M102.7,134h-29c-17.3,0-31.3-14.1-31.3-31.3v-29c0-17.3,14.1-31.3,31.3-31.3h29c17.3,0,31.3,14.1,31.3,31.3v29c0,17.3-14.1,31.3-31.3,31.3Zm-29.1-75.5c-8.4,0-15.2,6.8-15.2,15.2v29c0,8.4,6.8,15.2,15.2,15.2h29c8.4,0,15.2-6.8,15.2-15.2v-29c0-8.4-6.8-15.2-15.2-15.2h-29Z"/><path class="q" d="M196.1,45.3h8.3c2.2,0,4.2,1.4,4.8,3.5l16,49.6,16-49.6c.7-2.1,2.6-3.5,4.8-3.5h8.4c3.5,0,5.9,3.4,4.8,6.7l-24,71.7h-20l-24-71.7c-1.1-3.3,1.4-6.7,4.9-6.7Z"/><path class="r" d="M269.1,50.4c0-6,5.3-10.8,11.4-10,4.6,.6,8.3,4.4,8.8,9.1,.5,6.1-4.2,11.1-10.1,11.1-5.5-.1-10.1-4.6-10.1-10.2Zm4.6,17h11.2c2,0,3.6,1.6,3.6,3.6v52.6h-18.5v-52.6c0-2,1.7-3.6,3.7-3.6Z"/><path class="l" d="M305.4,67.4h12.8v4.7c3.3-3.7,8-6.4,14.9-6.4,12.6,0,23.5,9.3,23.5,23.2v34.8h-18.4v-34.8c0-5.7-3.9-9.6-9.7-9.4-5,.2-8.8,4.4-8.8,9.3v34.8h-18.4v-52.1c-.1-2.2,1.8-4.1,4.1-4.1Z"/><path class="m" d="M369.4,102.2v-31.2c0-2,1.6-3.6,3.6-3.6h11.3c2,0,3.6,1.6,3.6,3.6v31.2c0,5,3.9,9.2,8.9,9.4,5.7,.2,9.6-3.6,9.6-9.3v-31.2c0-2,1.6-3.6,3.6-3.6h14.8v56.2h-16.9v-4.7c-3.4,3.7-8,6.4-15,6.4-12.5,0-23.5-9.4-23.5-23.2Z"/><path class="p" d="M438.5,49c0-2,1.6-3.7,3.7-3.7h35.1c15.4,0,25.6,10.8,25.6,26.9s-10.2,26.9-25.6,26.9h-15.1c-2,0-3.7,1.6-3.7,3.7v20.8h-16.3c-2,0-3.7-1.6-3.7-3.7V49Zm36.3,33.6c5.1,0,8-4.2,8-10.4s-3-10.3-8-10.3h-16.3v17c0,2,1.6,3.7,3.7,3.7h12.6Z"/><path class="o" d="M507.8,108.3c0-14.1,13.9-16.2,24.8-17.8,7-1.1,12.8-2,12.8-5.7,0-3.5-3.4-6.1-8.6-6.1s-8.5,2.5-8.5,6.3h-14.3c-2.1,0-3.6-1.9-3.2-3.9,2.1-9.3,12-15.3,26-15.3,16,0,26.5,7.8,26.5,19.3v28.1c0,3.2,1.5,7.3,3.1,10.5h-14.2c-2.4,0-4.6-1.5-5.4-3.8-.1-.2-.2-.4-.2-.6-3.7,3.6-9,6.1-16,6.1-13.5,0-22.8-7.4-22.8-17.1Zm37.7-6.1v-3.4c-1.5,.4-3.2,.6-4.7,.9-8,1.1-15,2.3-15,7.5,0,3.4,2.9,5.3,8.8,5.3,6.3,0,10.9-4.1,10.9-10.3Z"/><path class="s" d="M576.1,131.5h10.2c1.7,0,2.5-1,3-2.5l1.5-4.2-19.9-52.5c-.9-2.4,.9-4.9,3.4-4.9h8.3c3,0,5.6,1.9,6.6,4.6l10.3,28.8,11.2-31c.5-1.5,1.9-2.4,3.5-2.4h15.8l-23,60.9c-3.8,9.8-7.8,17.5-19.4,17.5h-11.5v-14.3Z"/></svg>